sean_extrabold.sfdir

StartChar: exclam
Encoding: 33 33 1
Width: 435
Flags: MW
HStem: 0 145<180 315 180 315> 702 20G<179 314 314 314>
VStem: 180 135<0 145 0 145> 192 113<229 229>
LayerCount: 2
Fore
SplineSet
192 229 m 1xd0
 179 722 l 1
 314 722 l 1
 305 229 l 1
 192 229 l 1xd0
180 145 m 1xe0
 315 145 l 1
 315 0 l 1
 180 0 l 1
 180 145 l 1xe0
EndSplineSet
EndChar

StartChar: quotedbl
Encoding: 34 34 2
Width: 468
Flags: MW
HStem: 658 188<77 234 109 190 109 253 286 366>
LayerCount: 2
Fore
SplineSet
253 658 m 1
 286 846 l 1
 410 846 l 1
 366 658 l 1
 253 658 l 1
77 658 m 1
 109 846 l 1
 234 846 l 1
 190 658 l 1
 77 658 l 1
EndSplineSet
EndChar

StartChar: numbersign
Encoding: 35 35 3
Width: 675
Flags: MW
HStem: 220 79<68 88> 233 80<433 457> 441 78<207 230> 450 80<498 522>
LayerCount: 2
Fore
SplineSet
68 220 m 1x80
 88 299 l 1
 166 302 l 1
 207 441 l 1
 133 438 l 1
 153 516 l 1
 230 519 l 1xa0
 286 706 l 1
 367 706 l 1
 312 522 l 1
 440 527 l 1
 498 720 l 1
 579 720 l 1
 522 530 l 1
 587 533 l 1
 575 453 l 1
 498 450 l 1
 457 313 l 1
 522 315 l 1
 506 236 l 1
 433 233 l 1x50
 374 38 l 1
 293 38 l 1
 351 230 l 1
 224 226 l 1
 166 30 l 1
 85 30 l 1
 142 223 l 1
 68 220 l 1x80
289 443 m 1
 248 305 l 1
 375 310 l 1
 416 448 l 1
 289 443 l 1
EndSplineSet
EndChar

StartChar: quotesingle
Encoding: 39 39 4
Width: 290
Flags: MW
HStem: 658 188<81 232 119 194>
VStem: 81 151
LayerCount: 2
Fore
SplineSet
81 658 m 1
 119 846 l 1
 232 846 l 1
 194 658 l 1
 81 658 l 1
EndSplineSet
EndChar

StartChar: parenleft
Encoding: 40 40 5
Width: 476
Flags: MW
VStem: 56 131<229 431.5 229 442.5>
LayerCount: 2
Fore
SplineSet
400 856 m 1
 265 716 187 537 187 326 c 0
 187 132 260 -55 392 -198 c 1
 302 -290 l 1
 144 -124 56 97 56 327 c 0
 56 558 144 771 298 935 c 1
 400 856 l 1
EndSplineSet
EndChar

StartChar: parenright
Encoding: 41 41 6
Width: 477
Flags: MW
HStem: -299 21G<162 162>
VStem: 284 132<220.5 423>
LayerCount: 2
Fore
SplineSet
284 322 m 0
 284 524 207 707 70 848 c 1
 160 941 l 1
 323 778 416 569 416 320 c 0
 416 89 325 -134 162 -299 c 1
 59 -220 l 1
 204 -76 284 119 284 322 c 0
EndSplineSet
EndChar

StartChar: plus
Encoding: 43 43 7
Width: 764
Flags: MW
HStem: 265 114<112 333 112 333>
VStem: 333 118<18 265 18 379>
LayerCount: 2
Fore
SplineSet
112 265 m 1
 112 379 l 1
 333 379 l 1
 334 588 l 1
 452 588 l 1
 452 378 l 1
 662 378 l 1
 662 265 l 1
 451 265 l 1
 451 18 l 1
 332 18 l 1
 333 265 l 1
 112 265 l 1
EndSplineSet
EndChar

StartChar: comma
Encoding: 44 44 8
Width: 358
Flags: MW
HStem: -122 214<61 289 133 152>
VStem: 61 228<-122 92>
LayerCount: 2
Fore
SplineSet
61 -122 m 1
 133 92 l 1
 289 92 l 1
 152 -122 l 1
 61 -122 l 1
EndSplineSet
EndChar

StartChar: hyphen
Encoding: 45 45 9
Width: 420
Flags: MW
HStem: 215 113<79 354 79 354>
VStem: 79 275<215 328 215 328>
LayerCount: 2
Fore
SplineSet
79 328 m 1
 354 328 l 1
 354 215 l 1
 79 215 l 1
 79 328 l 1
EndSplineSet
EndChar

StartChar: period
Encoding: 46 46 10
Width: 361
Flags: MW
HStem: 0 170<114 259 114 259>
VStem: 114 145<0 170 0 170>
LayerCount: 2
Fore
SplineSet
114 170 m 1
 259 170 l 1
 259 0 l 1
 114 0 l 1
 114 170 l 1
EndSplineSet
EndChar

StartChar: slash
Encoding: 47 47 11
Width: 590
Flags: W
LayerCount: 2
Fore
SplineSet
172 -68 m 1
 37 -68 l 1
 440 844 l 1
 574 844 l 1
 172 -68 l 1
EndSplineSet
EndChar

StartChar: zero
Encoding: 48 48 12
Width: 589
Flags: MW
HStem: -28 123<260.5 334 260.5 371.5> 397 128<296 299 299 340.5>
VStem: 42 134<204 284 204 323.5> 424 134<209.5 289.5>
LayerCount: 2
Fore
SplineSet
176 243 m 0
 176 165 223 95 298 95 c 0
 370 95 424 167 424 252 c 0
 424 327 378 397 303 397 c 0
 228 397 176 325 176 243 c 0
299 -28 m 0
 156 -28 42 94 42 250 c 0
 42 397 151 524 296 525 c 1
 299 525 l 2
 446 525 558 397 558 248 c 0
 558 94 444 -28 299 -28 c 0
EndSplineSet
EndChar

StartChar: one
Encoding: 49 49 13
Width: 357
Flags: MW
HStem: 0 21G<168 303 168 168>
VStem: 168 135<0 0>
LayerCount: 2
Fore
SplineSet
167 510 m 1
 302 510 l 1
 303 0 l 1
 168 0 l 1
 167 358 l 1
 71 272 l 1
 -6 354 l 1
 167 510 l 1
EndSplineSet
EndChar

StartChar: two
Encoding: 50 50 14
Width: 477
Flags: MW
HStem: 7 113<35 89.5 298 457 35 89.5> 420 118<185 235>
VStem: 301 123<311.5 347>
LayerCount: 2
Fore
SplineSet
301 323 m 0
 301 371 265 420 205 420 c 0
 165 420 130 394 101 356 c 1
 25 424 l 1
 79 494 146 538 222 538 c 0
 347 538 424 447 424 344 c 0
 424 236 367 160 298 120 c 1
 457 120 l 1
 457 7 l 1
 35 7 l 1
 35 120 l 1
 144 120 233 156 282 251 c 0
 294 276 301 300 301 323 c 0
EndSplineSet
EndChar

StartChar: three
Encoding: 51 51 15
Width: 579
Flags: MW
HStem: -261 110<194 245.5 194 291.5> 79 102<161 163 161 161 163 182> 418 115<198.5 251>
VStem: 352 131<284 343> 379 140<-67.5 -26>
LayerCount: 2
Fore
SplineSet
352 308 m 0xf0
 352 378 291 418 211 418 c 0
 163 418 122 399 86 360 c 1
 37 444 l 1
 95 503 161 533 236 533 c 0
 380 533 483 455 483 320 c 0xf0
 483 248 452 190 400 149 c 1
 458 122 519 55 519 -33 c 0
 519 -164 365 -261 218 -261 c 0
 167 -261 116 -251 68 -229 c 1
 113 -125 l 1
 144 -143 177 -151 211 -151 c 0
 280 -151 379 -105 379 -30 c 0xe8
 379 -22 378 -13 376 -5 c 0
 354 76 271 79 182 79 c 2
 163 79 l 1
 161 79 l 1
 160 181 l 1
 263 181 352 216 352 308 c 0xf0
EndSplineSet
EndChar

StartChar: four
Encoding: 52 52 16
Width: 627
Flags: MW
HStem: 25 113<193 348 38 38 484 601> 507 20G<351 486 486 486>
VStem: 348 135<25 25>
LayerCount: 2
Fore
SplineSet
193 138 m 1
 349 138 l 1
 350 349 l 1
 193 138 l 1
38 138 m 1
 351 527 l 1
 486 527 l 1
 484 138 l 1
 601 138 l 1
 601 25 l 1
 483 25 l 1
 482 -222 l 1
 347 -222 l 1
 348 25 l 1
 38 25 l 1
 38 138 l 1
EndSplineSet
EndChar

StartChar: five
Encoding: 53 53 17
Width: 536
Flags: MW
HStem: -257 118<236.5 302 234.5 346> 155 114<271.5 306.5> 420 114<207 452 207 207>
VStem: 82 125<149 420> 418 124<-34 59>
LayerCount: 2
Fore
SplineSet
284 269 m 0
 429 269 542 176 542 5 c 0
 542 -146 424 -257 268 -257 c 0
 205 -257 136 -239 66 -199 c 1
 120 -100 l 1
 167 -127 214 -139 255 -139 c 0
 349 -139 418 -77 418 9 c 0
 418 109 349 155 264 155 c 0
 246 155 226 153 206 149 c 1
 82 149 l 1
 84 534 l 1
 452 534 l 1
 452 420 l 1
 207 420 l 1
 207 262 l 1
 234 267 259 269 284 269 c 0
EndSplineSet
EndChar

StartChar: six
Encoding: 54 54 18
Width: 605
Flags: MW
HStem: -12 133<281.5 347.5 281.5 386.5> 332 100<261.5 406>
VStem: 45 130<229 278.5 229 314.5> 427 144<186 247.5>
LayerCount: 2
Fore
SplineSet
501 755 m 1
 548 640 l 1
 461 603 381 554 308 494 c 0
 276 468 246 437 223 404 c 1
 260 422 300 432 342 432 c 0
 470 432 571 353 571 222 c 0
 571 96 457 -12 316 -12 c 0
 158 -12 45 108 45 263 c 0
 45 366 100 463 171 542 c 0
 260 641 374 714 501 755 c 1
427 215 m 0
 427 280 360 332 280 332 c 0
 243 332 207 321 177 300 c 1
 176 291 175 283 175 274 c 0
 175 184 245 121 318 121 c 0
 377 121 427 157 427 215 c 0
EndSplineSet
EndChar

StartChar: seven
Encoding: 55 55 19
Width: 586
Flags: MW
HStem: 402 124<94 94>
LayerCount: 2
Fore
SplineSet
94 526 m 1
 533 525 l 1
 533 401 l 1
 216 -222 l 1
 73 -222 l 1
 386 401 l 1
 94 402 l 1
 94 526 l 1
EndSplineSet
EndChar

StartChar: eight
Encoding: 56 56 20
Width: 595
Flags: MW
HStem: -48 109<293 296 292 348.5> 586 112<278 324>
VStem: 77 132<135.5 184> 92 122<490 536 490 564> 396 130<482.5 529.5> 422 115<121 176.5>
LayerCount: 2
Fore
SplineSet
299 586 m 0xd8
 257 586 214 560 214 512 c 0
 214 468 261 430 319 400 c 1
 361 427 396 462 396 503 c 0
 396 556 349 586 299 586 c 0xd8
428 346 m 1
 489 306 537 248 537 167 c 0
 537 46 426 -48 296 -48 c 2
 292 -48 l 1
 178 -45 77 33 77 144 c 0xe4
 77 224 131 285 200 332 c 1
 138 375 92 434 92 507 c 0
 92 621 196 698 311 698 c 0
 427 698 526 618 526 510 c 0
 526 442 484 386 428 346 c 1
324 61 m 0
 373 61 422 93 422 149 c 0
 422 204 365 245 301 278 c 1
 251 250 209 215 209 165 c 0
 209 106 262 61 324 61 c 0
EndSplineSet
EndChar

StartChar: nine
Encoding: 57 57 21
Width: 613
Flags: MW
HStem: 66 113<295.5 307.5> 403 135<268.5 333>
VStem: 54 146<270 330.5 270 360.5> 432 131<232.5 283>
LayerCount: 2
Fore
SplineSet
302 538 m 0
 471 538 563 393 563 245 c 0
 563 115 501 5 414 -84 c 0
 338 -161 245 -219 142 -253 c 1
 92 -128 l 1
 209 -94 315 -18 381 81 c 1
 353 71 323 66 292 66 c 0
 158 66 54 155 54 294 c 0
 54 427 166 538 302 538 c 0
200 303 m 0
 200 237 257 179 334 179 c 0
 370 179 405 193 431 216 c 1
 432 223 432 229 432 236 c 0
 432 330 368 403 298 403 c 0
 239 403 200 358 200 303 c 0
EndSplineSet
EndChar

StartChar: colon
Encoding: 58 58 22
Width: 385
Flags: MW
HStem: 0 152<134 269 134 269> 341 152<134 269 134 269>
VStem: 134 135<0 152 0 152 341 493>
LayerCount: 2
Fore
SplineSet
134 152 m 1
 269 152 l 1
 269 0 l 1
 134 0 l 1
 134 152 l 1
134 493 m 1
 269 493 l 1
 269 341 l 1
 134 341 l 1
 134 493 l 1
EndSplineSet
EndChar

StartChar: semicolon
Encoding: 59 59 23
Width: 358
Flags: MW
HStem: 341 152<137 271 137 271>
VStem: 137 134<341 493 341 493>
LayerCount: 2
Fore
SplineSet
137 341 m 1
 137 493 l 1
 271 493 l 1
 271 341 l 1
 137 341 l 1
50 -95 m 1
 138 92 l 1
 284 92 l 1
 163 -95 l 1
 50 -95 l 1
EndSplineSet
EndChar

StartChar: less
Encoding: 60 60 24
Width: 828
Flags: W
LayerCount: 2
Fore
SplineSet
272 301 m 1
 710 104 l 1
 710 -31 l 1
 125 232 l 1
 125 367 l 1
 701 637 l 1
 701 502 l 1
 272 301 l 1
EndSplineSet
EndChar

StartChar: equal
Encoding: 61 61 25
Width: 849
Flags: MW
HStem: 161 113<127 723 127 723> 383 113<127 723 127 723>
LayerCount: 2
Fore
SplineSet
127 274 m 1
 723 274 l 1
 723 161 l 1
 127 161 l 1
 127 274 l 1
127 496 m 1
 723 496 l 1
 723 383 l 1
 127 383 l 1
 127 496 l 1
EndSplineSet
EndChar

StartChar: greater
Encoding: 62 62 26
Width: 828
Flags: W
LayerCount: 2
Fore
SplineSet
141 -31 m 1
 141 104 l 1
 571 301 l 1
 127 502 l 1
 127 637 l 1
 718 368 l 1
 718 234 l 1
 141 -31 l 1
EndSplineSet
EndChar

StartChar: question
Encoding: 63 63 27
Width: 573
Flags: MW
HStem: -10 164<198 354 198 354> 226 194<210 255.5 210 344 209 255.5> 665 124<278 313>
VStem: 198 156<-10 154> 210 135<321 420 321 420> 399 145<502.5 583.5>
LayerCount: 2
Fore
SplineSet
210 420 m 1xec
 301 420 399 455 399 550 c 0
 399 617 343 665 283 665 c 0
 256 665 229 655 206 634 c 1
 154 734 l 1
 201 772 253 789 303 789 c 0
 430 789 544 681 544 550 c 0
 544 418 451 345 345 321 c 1
 344 226 l 1
 209 226 l 1
 210 347 l 1
 210 420 l 1xec
354 -10 m 1xf4
 198 -10 l 1
 198 154 l 1
 354 154 l 1
 354 -10 l 1xf4
EndSplineSet
EndChar

StartChar: at
Encoding: 64 64 28
Width: 851
Flags: MW
HStem: -169 89<450 454 450 500> 16 82<613.5 645 613.5 664.5> 30 73<422 424 422 433.5> 336 86<412.5 461> 500 85<359.5 440 440 442>
VStem: 59 90<130.5 292.5 130.5 313> 235 92<182 246.5 182 272.5> 515 93<280.5 294> 711 92<199.5 315>
LayerCount: 2
Fore
SplineSet
583 146 m 0xbf80
 583 120 602 98 625 98 c 0
 665 98 711 156 711 243 c 0
 711 387 588 499 442 500 c 1
 440 500 l 2
 279 500 149 373 149 212 c 0
 149 49 285 -80 450 -80 c 2
 454 -80 l 1
 530 -79 602 -48 656 6 c 1
 717 -62 l 1
 645 -131 550 -169 450 -169 c 0
 234 -169 59 -4 59 208 c 0
 59 418 233 585 443 585 c 0
 645 585 803 436 803 251 c 0
 803 117 712 16 617 16 c 0xdf80
 577 16 537 37 517 62 c 1
 487 42 452 30 415 30 c 0
 308 30 235 111 235 216 c 0
 235 329 328 422 442 422 c 0
 531 422 608 369 608 282 c 0
 608 236 583 195 583 146 c 0xbf80
327 213 m 0
 327 151 368 103 422 103 c 2
 424 103 l 1xbf80
 453 104 477 121 490 145 c 1
 493 189 515 268 515 293 c 0
 515 295 514 297 514 298 c 0
 501 323 475 336 447 336 c 0
 378 336 327 280 327 213 c 0
EndSplineSet
EndChar

StartChar: A
Encoding: 65 65 29
Width: 767
Flags: MW
HStem: 0 21G<40 184 40 40> 169 107<302 496 302 530 256 496> 701 20G<357 492 492 492>
LayerCount: 2
Fore
SplineSet
496 276 m 1
 414 538 l 1
 302 276 l 1
 496 276 l 1
530 169 m 1
 256 169 l 1
 184 0 l 1
 40 0 l 1
 357 721 l 1
 492 721 l 1
 721 1 l 1
 582 1 l 1
 530 169 l 1
EndSplineSet
EndChar

StartChar: B
Encoding: 66 66 30
Width: 651
Flags: MW
HStem: 0 108<220 291 220 291> 348 104<277.5 289 289 325 220 337.5> 615 107<220 287 220 220>
VStem: 85 135<108 347 452 615> 421 135<508.5 569> 464 134<180.5 262.5 142.5 266>
LayerCount: 2
Fore
SplineSet
287 722 m 2xf4
 426 722 556 683 556 539 c 0xf8
 556 478 525 431 475 400 c 1
 549 366 598 307 598 218 c 0
 598 67 458 0 291 0 c 2
 85 0 l 1
 85 722 l 1
 287 722 l 2xf4
421 534 m 0
 421 604 355 615 287 615 c 2
 220 615 l 1
 220 452 l 1
 289 452 l 2
 361 452 421 479 421 534 c 0
291 108 m 2
 382 108 464 134 464 227 c 0xf4
 464 305 386 348 289 348 c 0
 266 348 243 348 220 347 c 1
 220 108 l 1
 291 108 l 2
EndSplineSet
EndChar

StartChar: C
Encoding: 67 67 31
Width: 689
Flags: MW
HStem: -6 134<367.5 465.5> 601 132<364.5 464.5 305 469>
VStem: 54 147<291.5 438.5 291.5 474>
LayerCount: 2
Fore
SplineSet
439 128 m 0
 507 128 559 143 613 172 c 1
 676 59 l 1
 597 17 512 -6 419 -6 c 0
 196 -6 54 133 54 360 c 0
 54 588 198 733 412 733 c 0
 517 733 595 707 673 665 c 1
 616 555 l 1
 561 586 500 601 438 601 c 0
 291 601 201 514 201 363 c 0
 201 220 296 128 439 128 c 0
EndSplineSet
EndChar

StartChar: D
Encoding: 68 68 32
Width: 702
Flags: MW
HStem: 0 134<190 286 286 335> 588 134<190 279 279 301 190 190>
VStem: 55 135<134 588 134 722 134 722> 529 145<274 417.5>
LayerCount: 2
Fore
SplineSet
279 722 m 2
 517 722 674 594 674 350 c 0
 674 131 558 0 335 0 c 2
 55 0 l 1
 55 722 l 1
 279 722 l 2
529 343 m 0
 529 492 440 588 301 588 c 2
 190 588 l 1
 190 134 l 1
 286 134 l 2
 437 134 529 205 529 343 c 0
EndSplineSet
EndChar

StartChar: E
Encoding: 69 69 33
Width: 627
Flags: MW
HStem: 0 129<225 564 225 564> 309 129<225 455 225 455> 593 129<225 532 225 225>
VStem: 91 134<129 309 438 593>
LayerCount: 2
Fore
SplineSet
91 0 m 1
 91 722 l 1
 532 722 l 1
 532 593 l 1
 225 593 l 1
 225 438 l 1
 455 438 l 1
 455 309 l 1
 225 309 l 1
 225 129 l 1
 564 129 l 1
 564 0 l 1
 91 0 l 1
EndSplineSet
EndChar

StartChar: F
Encoding: 70 70 34
Width: 592
Flags: MW
HStem: 0 21G<91 91 91 225> 309 129<225 468 225 468> 593 129<225 536 225 225>
VStem: 91 134<0 309 438 593>
LayerCount: 2
Fore
SplineSet
91 0 m 1
 91 722 l 1
 536 722 l 1
 536 593 l 1
 225 593 l 1
 225 438 l 1
 468 438 l 1
 468 309 l 1
 225 309 l 1
 225 0 l 1
 91 0 l 1
EndSplineSet
EndChar

StartChar: G
Encoding: 71 71 35
Width: 783
Flags: MW
HStem: -6 115<366.5 469 366.5 471> 248 118<482 595 482 714> 600 130<375.5 481.5 319.5 484.5>
VStem: 56 140<345 424.5 272.5 461> 595 119<140 248 248 248>
LayerCount: 2
Fore
SplineSet
439 109 m 0
 499 109 547 121 595 140 c 1
 595 248 l 1
 482 248 l 1
 482 366 l 1
 714 366 l 1
 714 76 l 1
 624 23 526 -6 416 -6 c 0
 198 -6 57 125 56 345 c 1
 56 577 208 730 431 730 c 0
 532 730 612 705 689 661 c 1
 633 550 l 1
 578 582 518 600 451 600 c 0
 300 600 196 503 196 346 c 0
 196 199 294 109 439 109 c 0
EndSplineSet
EndChar

StartChar: H
Encoding: 72 72 36
Width: 762
Flags: MW
HStem: 0 21G<70 204 70 70 566 701 566 566> 300 124<205 566 205 566 204 566> 702 20G<70 205 205 205 566 701 701 701>
VStem: 70 134<0 300 0 722> 566 135<0 300 300 300 424 722 0 722>
LayerCount: 2
Fore
SplineSet
566 722 m 1
 701 722 l 1
 701 0 l 1
 566 0 l 1
 566 300 l 1
 204 300 l 1
 204 0 l 1
 70 0 l 1
 70 722 l 1
 205 722 l 1
 205 424 l 1
 566 424 l 1
 566 722 l 1
EndSplineSet
EndChar

StartChar: I
Encoding: 73 73 37
Width: 272
Flags: MW
HStem: 0 21G<73 73 73 208> 702 20G<74 208 208 208>
VStem: 73 135<0 722>
LayerCount: 2
Fore
SplineSet
73 0 m 1
 74 722 l 1
 208 722 l 1
 208 0 l 1
 73 0 l 1
EndSplineSet
EndChar

StartChar: J
Encoding: 74 74 38
Width: 331
Flags: MW
HStem: -242 114<40 82.5 40 113.5> 702 20G<132 266 266 266>
VStem: 131 135<-29 0>
LayerCount: 2
Fore
SplineSet
266 0 m 2
 266 -127 178 -242 49 -242 c 0
 10 -242 -27 -229 -58 -205 c 1
 -1 -108 l 1
 13 -121 31 -128 49 -128 c 0
 116 -128 131 -58 131 0 c 2
 132 722 l 1
 266 722 l 1
 266 0 l 2
EndSplineSet
EndChar

StartChar: K
Encoding: 75 75 39
Width: 672
Flags: MW
HStem: 0 21G<73 73 73 208 470 470 470 632> 702 20G<73 208 208 208 466 628 628 628>
VStem: 73 135<0 276 476 722>
LayerCount: 2
Fore
SplineSet
73 0 m 1
 73 722 l 1
 208 722 l 1
 208 476 l 1
 466 722 l 1
 628 722 l 1
 269 374 l 1
 632 0 l 1
 470 0 l 1
 208 276 l 1
 208 0 l 1
 73 0 l 1
EndSplineSet
EndChar

StartChar: L
Encoding: 76 76 40
Width: 577
Flags: MW
HStem: 0 129<208 538 208 538> 702 20G<73 208 208 208>
VStem: 73 135<129 722 129 722 129 722>
LayerCount: 2
Fore
SplineSet
73 0 m 1
 73 722 l 1
 208 722 l 1
 208 129 l 1
 538 129 l 1
 538 0 l 1
 73 0 l 1
EndSplineSet
EndChar

StartChar: M
Encoding: 77 77 41
Width: 877
Flags: MW
HStem: 0 21G<41 175 41 41 366 495 366 366 692 692 692 827> 702 20G<95 230 230 230 672 761 761 761>
LayerCount: 2
Fore
SplineSet
656 435 m 1
 495 0 l 1
 366 0 l 1
 204 431 l 1
 175 0 l 1
 41 0 l 1
 95 722 l 1
 230 722 l 1
 424 161 l 1
 627 723 l 1
 672 722 l 1
 761 722 l 1
 827 0 l 1
 692 0 l 1
 656 435 l 1
EndSplineSet
EndChar

StartChar: N
Encoding: 78 78 42
Width: 772
Flags: MW
HStem: 0 21G<73 73 73 208 583 583 583 718> 702 20G<73 208 208 208 583 718 718 718>
VStem: 73 135<0 520 0 722> 583 135<0 722 202 722 0 722>
LayerCount: 2
Fore
SplineSet
73 0 m 1
 73 722 l 1
 208 722 l 1
 583 202 l 1
 583 722 l 1
 718 722 l 1
 718 0 l 1
 583 0 l 1
 208 520 l 1
 208 0 l 1
 73 0 l 1
EndSplineSet
EndChar

StartChar: O
Encoding: 79 79 43
Width: 760
Flags: MW
HStem: -6 123<322 452.5 322 487> 604 125<317.5 447>
VStem: 39 142<289 427 289 468> 587 143<294 432.5>
LayerCount: 2
Fore
SplineSet
384 604 m 0
 251 604 181 497 181 357 c 0
 181 221 261 117 383 117 c 0
 522 117 587 224 587 364 c 0
 587 501 510 604 384 604 c 0
382 -6 m 0
 172 -6 39 148 39 361 c 0
 39 575 177 729 384 729 c 0
 599 729 730 576 730 360 c 0
 730 147 592 -6 382 -6 c 0
EndSplineSet
EndChar

StartChar: P
Encoding: 80 80 44
Width: 569
Flags: MW
HStem: 0 21G<73 208 73 73> 228 123<292 317.5 264.5 382> 598 124<208 262 208 208>
VStem: 73 135<0 244 0 364 364 598> 422 136<436 515.5>
LayerCount: 2
Fore
SplineSet
310 228 m 0
 274 228 237 235 208 244 c 1
 208 0 l 1
 73 0 l 1
 73 722 l 1
 262 722 l 2
 419 722 558 641 558 462 c 0
 558 329 454 228 310 228 c 0
422 469 m 0
 422 562 344 598 262 598 c 2
 208 598 l 1
 208 364 l 1
 230 355 253 351 276 351 c 0
 359 351 422 403 422 469 c 0
EndSplineSet
EndChar

StartChar: Q
Encoding: 81 81 45
Width: 765
Flags: MW
HStem: -232 113<767 767> 600 128<317.5 450.5>
VStem: 34 139<293.5 431.5 293.5 470.5> 599 139<289.5 425.5>
LayerCount: 2
Fore
SplineSet
493 9 m 1
 558 -57 654 -110 767 -119 c 1
 767 -232 l 1
 588 -229 434 -127 352 -5 c 1
 160 10 34 155 34 365 c 0
 34 576 177 728 388 728 c 0
 600 728 738 578 738 357 c 0
 738 185 644 52 493 9 c 1
387 600 m 0
 248 600 173 500 173 363 c 0
 173 224 261 121 387 121 c 0
 526 121 599 223 599 356 c 0
 599 495 514 600 387 600 c 0
EndSplineSet
EndChar

StartChar: R
Encoding: 82 82 46
Width: 692
Flags: MW
HStem: 0 21G<94 229 94 94 537 692 537 537> 291 118<229 277 229 277> 593 129<229 302 229 229>
VStem: 94 135<0 291 0 409 409 593> 454 134<466.5 540.5>
LayerCount: 2
Fore
SplineSet
302 722 m 2
 455 722 588 664 588 510 c 0
 588 423 536 360 457 325 c 1
 692 0 l 1
 537 0 l 1
 326 293 l 1
 310 292 294 291 277 291 c 2
 229 291 l 1
 229 0 l 1
 94 0 l 1
 94 722 l 1
 302 722 l 2
454 502 m 0
 454 579 380 593 302 593 c 2
 229 593 l 1
 229 409 l 1
 277 409 l 2
 370 409 454 430 454 502 c 0
EndSplineSet
EndChar

StartChar: S
Encoding: 83 83 47
Width: 594
Flags: MW
HStem: -7 123<295 324.5 295 364> 610 121<264 316.5>
VStem: 57 143<518 568 518 601.5> 404 153<166 225.5>
LayerCount: 2
Fore
SplineSet
451 573 m 1
 400 594 346 610 287 610 c 0
 241 610 200 591 200 545 c 0
 200 491 288 455 359 426 c 0
 456 387 557 321 557 195 c 0
 557 74 440 -7 288 -7 c 0
 203 -7 128 12 53 39 c 1
 90 163 l 1
 154 133 224 118 295 116 c 1
 354 116 404 137 404 195 c 0
 404 256 335 290 272 315 c 1
 171 357 57 416 57 547 c 0
 57 656 158 731 292 731 c 0
 371 731 433 712 495 683 c 1
 451 573 l 1
EndSplineSet
EndChar

StartChar: T
Encoding: 84 84 48
Width: 628
Flags: MW
HStem: 0 21G<242 376 242 242> 599 129<21 618 21 242 376 376 376 618>
VStem: 242 134<0 599 0 599>
LayerCount: 2
Fore
SplineSet
21 599 m 1
 21 728 l 1
 618 728 l 1
 618 599 l 1
 376 599 l 1
 376 0 l 1
 242 0 l 1
 242 599 l 1
 21 599 l 1
EndSplineSet
EndChar

StartChar: U
Encoding: 85 85 49
Width: 709
Flags: MW
HStem: -6 130<319 434.5 319 457.5> 702 20G<63 197 197 197 536 670 670 670>
VStem: 63 134<323 350 350 722> 536 134<311 338 338 722>
LayerCount: 2
Fore
SplineSet
63 722 m 1
 197 722 l 1
 197 350 l 2
 197 213 255 124 383 124 c 0
 486 124 536 201 536 311 c 2
 536 722 l 1
 670 722 l 1
 670 338 l 2
 670 131 558 -6 357 -6 c 0
 162 -6 63 121 63 323 c 2
 63 722 l 1
EndSplineSet
EndChar

StartChar: V
Encoding: 86 86 50
Width: 773
Flags: MW
HStem: 0 21G<327 473 327 327> 702 20G<49 195 195 195 607 747 747 747>
LayerCount: 2
Fore
SplineSet
747 722 m 1
 473 0 l 1
 327 0 l 1
 49 722 l 1
 195 722 l 1
 401 190 l 1
 607 722 l 1
 747 722 l 1
EndSplineSet
EndChar

StartChar: W
Encoding: 87 87 51
Width: 964
Flags: MW
HStem: 0 21G<272 393 272 272 615 737 615 615> 702 20G<40 175 175 175 442 561 561 561 809 941 941 941>
LayerCount: 2
Fore
SplineSet
941 722 m 1
 737 0 l 1
 615 0 l 1
 506 485 l 1
 393 0 l 1
 272 0 l 1
 40 722 l 1
 175 722 l 1
 324 219 l 1
 442 722 l 1
 561 722 l 1
 674 221 l 1
 809 722 l 1
 941 722 l 1
EndSplineSet
EndChar

StartChar: X
Encoding: 88 88 52
Width: 698
Flags: MW
HStem: 0 21G<17 168 17 17 523 669 523 523> 702 20G<59 205 205 205 531 682 682 682>
LayerCount: 2
Fore
SplineSet
59 722 m 1
 205 722 l 1
 360 481 l 1
 531 722 l 1
 682 722 l 1
 428 375 l 1
 669 0 l 1
 523 0 l 1
 354 263 l 1
 168 0 l 1
 17 0 l 1
 286 369 l 1
 59 722 l 1
EndSplineSet
EndChar

StartChar: Y
Encoding: 89 89 53
Width: 632
Flags: MW
HStem: 0 21G<261 395 261 261> 702 20G<30 170 170 170 494 640 640 640>
VStem: 261 134<0 307 307 307>
LayerCount: 2
Fore
SplineSet
494 722 m 1
 640 722 l 1
 395 337 l 1
 395 0 l 1
 261 0 l 1
 261 307 l 1
 30 722 l 1
 170 722 l 1
 322 446 l 1
 494 722 l 1
EndSplineSet
EndChar

StartChar: Z
Encoding: 90 90 54
Width: 676
Flags: MW
HStem: -2 124<213 629 56 56> 593 124<119 119>
LayerCount: 2
Fore
SplineSet
119 593 m 1
 119 717 l 1
 604 718 l 1
 604 594 l 1
 213 122 l 1
 629 122 l 1
 629 -2 l 1
 56 -2 l 1
 56 122 l 1
 447 594 l 1
 119 593 l 1
EndSplineSet
EndChar

StartChar: underscore
Encoding: 95 95 55
Width: 727
Flags: MW
HStem: -274 135<46 691 46 691>
LayerCount: 2
Fore
SplineSet
46 -139 m 1
 691 -139 l 1
 691 -274 l 1
 46 -274 l 1
 46 -139 l 1
EndSplineSet
EndChar

StartChar: grave
Encoding: 96 96 56
Width: 365
Flags: MW
HStem: 656 190<55 204 55 338>
VStem: 55 283<656 846>
LayerCount: 2
Fore
SplineSet
204 656 m 1
 55 846 l 1
 201 846 l 1
 338 656 l 1
 204 656 l 1
EndSplineSet
EndChar

StartChar: a
Encoding: 97 97 57
Width: 640
Flags: MW
HStem: -11 111<272 280> 0 21G<404 539 404 404> 253 91<309.5 359.5> 438 106<249.5 305.5>
VStem: 68 135<137 191 137 211.5> 404 135<0 57 57 57 166 250 250 250>
LayerCount: 2
Fore
SplineSet
404 341 m 1xbc
 400 404 343 438 268 438 c 0
 223 438 177 425 137 403 c 1
 87 494 l 1
 148 527 215 544 284 544 c 0
 430 544 539 474 539 344 c 2
 539 0 l 1
 404 0 l 1x7c
 404 57 l 1
 361 15 310 -11 250 -11 c 0
 144 -11 68 52 68 145 c 0
 68 278 199 344 353 344 c 0
 370 344 387 343 404 341 c 1xbc
404 250 m 1
 386 252 368 253 351 253 c 0
 268 253 203 227 203 155 c 0
 203 119 234 101 272 100 c 1xbc
 331 100 372 125 404 166 c 1
 404 250 l 1
EndSplineSet
EndChar

StartChar: b
Encoding: 98 98 58
Width: 610
Flags: MW
HStem: -7 102<310.5 345 276.5 411> 0 21G<59 194 59 59> 445 95<325.5 338.5> 763 20G<59 194 194 194>
VStem: 59 135<0 35 0 135 135 407 491 783> 447 139<210.5 304>
LayerCount: 2
Fore
SplineSet
340 -7 m 0xbc
 281 -7 231 10 194 35 c 1
 194 0 l 1
 59 0 l 1x7c
 59 783 l 1
 194 783 l 1
 194 491 l 1
 242 522 299 540 352 540 c 0
 495 540 586 414 586 258 c 0
 586 106 482 -7 340 -7 c 0xbc
294 445 m 0
 256 445 223 430 194 407 c 1
 194 135 l 1
 221 109 257 95 296 95 c 0xbc
 394 95 447 170 447 251 c 0
 447 357 383 445 294 445 c 0
EndSplineSet
EndChar

StartChar: c
Encoding: 99 99 59
Width: 493
Flags: MW
HStem: -10 118<289.5 348> 426 113<282.5 344 229.5 346>
VStem: 38 138<221 310 221 347>
LayerCount: 2
Fore
SplineSet
176 264 m 0
 176 178 239 108 340 108 c 0
 374 108 403 119 431 142 c 1
 490 55 l 1
 437 11 380 -10 316 -10 c 0
 146 -10 38 102 38 269 c 0
 38 425 149 539 310 539 c 0
 378 539 424 522 473 485 c 1
 423 393 l 1
 394 415 362 426 330 426 c 0
 235 426 176 356 176 264 c 0
EndSplineSet
EndChar

StartChar: d
Encoding: 100 100 60
Width: 644
Flags: MW
HStem: -6 109<284 358.5 284 358.5> 434 112<284.5 321 223.5 354> 763 20G<447 582 582 582>
VStem: 50 135<226 321.5 226 348.5> 448 134<0 50 0 50>
LayerCount: 2
Fore
SplineSet
335 434 m 0
 234 434 185 367 185 276 c 0
 185 176 248 103 333 103 c 0
 384 103 422 125 448 154 c 1
 448 232 449 311 449 389 c 2
 449 408 l 1
 415 425 373 434 335 434 c 0
291 546 m 0
 351 546 408 522 449 495 c 1
 449 591 448 687 447 783 c 1
 582 783 l 1
 583 652 584 521 584 389 c 0
 584 296 583 202 583 109 c 0
 583 73 583 36 582 0 c 1
 448 0 l 1
 448 50 l 1
 404 15 347 -6 286 -6 c 2
 284 -6 l 1
 139 -4 50 109 50 267 c 0
 50 430 156 546 291 546 c 0
EndSplineSet
EndChar

StartChar: e
Encoding: 101 101 61
Width: 586
Flags: MW
HStem: -10 112<308 361.5> 228 98<187 411 183 540 187 187> 431 112<267 330.5>
LayerCount: 2
Fore
SplineSet
300 543 m 0
 455 543 546 443 546 286 c 0
 546 266 544 247 540 228 c 1
 187 228 l 1
 206 151 265 102 351 102 c 0
 392 102 432 114 466 136 c 1
 528 48 l 1
 467 10 397 -10 326 -10 c 0
 149 -10 44 96 44 264 c 0
 44 426 151 543 300 543 c 0
411 326 m 1
 398 387 360 431 301 431 c 0
 233 431 194 386 183 326 c 1
 411 326 l 1
EndSplineSet
EndChar

StartChar: f
Encoding: 102 102 62
Width: 486
Flags: MW
HStem: 0 21G<158 293 158 158> 414 121<29 158 29 158 293 465> 697 116<365.5 388.5 313.5 401>
VStem: 158 135<0 414 0 414 535 593>
LayerCount: 2
Fore
SplineSet
293 535 m 1
 465 535 l 1
 465 414 l 1
 293 414 l 1
 293 0 l 1
 158 0 l 1
 158 414 l 1
 29 414 l 1
 29 535 l 1
 158 535 l 1
 158 593 l 2
 158 724 257 813 370 813 c 0
 407 813 445 804 482 783 c 1
 446 682 l 1
 428 692 410 697 392 697 c 0
 339 697 293 655 293 593 c 2
 293 535 l 1
EndSplineSet
EndChar

StartChar: g
Encoding: 103 103 63
Width: 597
Flags: MW
HStem: -316 118<251 336.5 251 357.5> -37 109<290.5 299.5 252 354.5> 154 100<259.5 296 278 296> 428 93<501 577> 438 102<261.5 313.5 231 317.5>
VStem: 43 91<-122.5 -97.5> 58 133<321 373 321 400.5> 67 103<113 135.5> 392 125<317.5 369 299 370.5> 452 124<-137.5 -77.5>
LayerCount: 2
Fore
SplineSet
452 -109 m 0xe440
 452 -46 383 -37 326 -37 c 0
 255 -37 195 -34 150 -18 c 1
 140 -36 134 -57 134 -79 c 0
 134 -166 205 -198 297 -198 c 0
 376 -198 452 -166 452 -109 c 0xe440
274 -316 m 0
 139 -316 43 -255 43 -124 c 0xf440
 43 -71 62 -21 96 18 c 1
 77 40 67 71 67 114 c 0xf1
 67 157 82 193 109 220 c 1
 77 252 58 291 58 343 c 0
 58 458 168 540 294 540 c 0xea
 333 540 365 533 397 520 c 1
 577 521 l 1
 577 429 l 1
 501 428 l 1
 511 408 517 383 517 355 c 0
 517 243 409 154 280 154 c 2
 278 154 l 2
 241 154 206 162 174 176 c 1
 171 167 170 157 170 145 c 0xf180
 170 81 217 72 287 72 c 0
 312 72 341 73 371 73 c 0
 471 73 576 22 576 -95 c 0
 576 -213 441 -316 274 -316 c 0
290 438 m 0xea80
 233 438 191 399 191 347 c 0
 191 295 239 254 294 254 c 2
 296 254 l 1
 347 256 392 291 392 344 c 0
 392 397 345 438 290 438 c 0xea80
EndSplineSet
EndChar

StartChar: h
Encoding: 104 104 64
Width: 599
Flags: MW
HStem: 0 21G<67 202 67 67 408 408 408 543> 423 120<334.5 336.5> 763 20G<67 201 201 201>
VStem: 67 134<318 382 318 489 489 727 727 783> 408 135<0 51.5>
LayerCount: 2
Fore
SplineSet
306 423 m 0
 269 423 231 407 201 382 c 1
 201 254 202 127 202 0 c 1
 67 0 l 1
 67 783 l 1
 201 783 l 1
 201 727 l 1
 201 489 l 1
 249 523 307 543 362 543 c 0
 492 543 542 439 542 320 c 0
 542 214 542 107 543 0 c 1
 408 0 l 1
 408 103 407 206 407 309 c 0
 407 373 367 423 306 423 c 0
EndSplineSet
EndChar

StartChar: i
Encoding: 105 105 65
Width: 286
Flags: MW
HStem: 0 21G<80 80 80 215> 513 20G<80 214 214 214> 690 147<74 220 74 220>
VStem: 74 146<690 837 690 837>
LayerCount: 2
Fore
SplineSet
74 690 m 1
 74 837 l 1
 220 837 l 1
 220 690 l 1
 74 690 l 1
80 0 m 1
 80 533 l 1
 214 533 l 1
 215 0 l 1
 80 0 l 1
EndSplineSet
EndChar

StartChar: j
Encoding: 106 106 66
Width: 380
Flags: MW
HStem: -317 124<74 89.5 65 134.5> 515 20G<150 285 285 285> 683 153<145 290 145 290>
VStem: 150 135<-109 535>
LayerCount: 2
Fore
SplineSet
145 683 m 1
 145 836 l 1
 290 836 l 1
 290 683 l 1
 145 683 l 1
54 -192 m 1
 58 -193 63 -193 67 -193 c 0
 112 -193 150 -156 150 -109 c 2
 150 535 l 1
 285 535 l 1
 285 -109 l 2
 285 -225 191 -317 78 -317 c 0
 70 -317 62 -317 54 -316 c 1
 54 -192 l 1
EndSplineSet
EndChar

StartChar: k
Encoding: 107 107 67
Width: 626
Flags: MW
HStem: 0 21G<99 99 99 233 450 450 450 615> 513 20G<423 593 593 593> 763 20G<99 233 233 233>
VStem: 99 134<0 228 360 783>
LayerCount: 2
Fore
SplineSet
99 0 m 1
 99 783 l 1
 233 783 l 1
 233 360 l 1
 423 533 l 1
 593 533 l 1
 335 294 l 1
 615 0 l 1
 450 0 l 1
 233 228 l 1
 233 0 l 1
 99 0 l 1
EndSplineSet
EndChar

StartChar: l
Encoding: 108 108 68
Width: 299
Flags: MW
HStem: 1 21G<86 86 86 221> 763 20G<86 220 220 220>
VStem: 86 135<1 783>
LayerCount: 2
Fore
SplineSet
86 1 m 1
 86 783 l 1
 220 783 l 1
 221 1 l 1
 86 1 l 1
EndSplineSet
EndChar

StartChar: m
Encoding: 109 109 69
Width: 942
Flags: MW
HStem: 1 21G<409 544 409 409 743 878 743 743> 424 119<665 675> 513 20G<76 211 211 211>
VStem: 76 135<316.5 492 492 533> 410 135<290.5 351 287.5 372> 743 135<1 58 1 338>
LayerCount: 2
Fore
SplineSet
698 543 m 0xdc
 819 543 877 450 877 344 c 0
 877 230 878 115 878 1 c 1
 743 1 l 1
 743 338 l 2
 743 389 701 424 649 424 c 0xdc
 609 424 574 406 543 381 c 1
 545 369 545 357 545 345 c 0
 545 230 545 116 544 1 c 1
 409 1 l 1
 410 117 410 233 410 348 c 0
 410 396 369 429 320 429 c 0
 281 429 242 410 211 385 c 1
 211 248 211 143 210 0 c 1
 75 0 l 1
 76 159 76 271 76 431 c 2
 76 533 l 1
 211 533 l 1xbc
 211 492 l 1
 256 525 312 546 366 546 c 0
 439 546 486 512 514 465 c 1
 562 512 632 543 698 543 c 0xdc
EndSplineSet
EndChar

StartChar: n
Encoding: 110 110 70
Width: 610
Flags: MW
HStem: 0 21G<68 202 68 68 419 554 419 419> 421 122<345 350> 513 20G<69 204 204 204>
VStem: 69 135<310 480 480 533> 419 135<0 322 322 332 0 351.5>
LayerCount: 2
Fore
SplineSet
375 543 m 0xd8
 501 543 554 447 554 332 c 2
 554 0 l 1
 419 0 l 1
 419 322 l 2
 419 381 378 421 322 421 c 0xd8
 276 421 237 400 204 372 c 1
 204 248 203 124 202 0 c 1
 68 0 l 1
 69 144 69 287 69 431 c 2
 69 533 l 1
 204 533 l 1xb8
 204 480 l 1
 254 519 315 543 375 543 c 0xd8
EndSplineSet
EndChar

StartChar: o
Encoding: 111 111 71
Width: 621
Flags: MW
HStem: -9 119<274.5 358.5 274.5 390.5> 425 115<265 348.5>
VStem: 44 138<228.5 276 228.5 346> 442 136<221.5 310.5>
LayerCount: 2
Fore
SplineSet
310 425 m 0
 220 425 181 356 182 276 c 1
 182 181 236 110 313 110 c 0
 404 110 442 179 442 264 c 0
 442 357 387 425 310 425 c 0
313 -9 m 0
 144 -9 44 102 44 265 c 0
 44 427 153 540 311 540 c 0
 477 540 578 430 578 269 c 0
 578 105 468 -9 313 -9 c 0
EndSplineSet
EndChar

StartChar: p
Encoding: 112 112 72
Width: 639
Flags: MW
HStem: -300 21G<67 202 67 67> -11 111<313.5 345 275.5 416.5> 439 101<348.5 362.5> 513 20G<67 202 202 202>
VStem: 67 135<-300 -300 509 533> 467 133<219 317.5>
LayerCount: 2
Fore
SplineSet
341 -11 m 0xec
 286 -11 242 2 204 23 c 1
 204 -85 203 -192 202 -300 c 1
 67 -300 l 1
 68 -158 69 -16 69 126 c 0
 69 214 69 301 68 389 c 0
 68 437 67 485 67 533 c 1
 202 533 l 1xdc
 202 481 l 1
 255 517 319 540 378 540 c 0
 519 540 600 415 600 271 c 0
 600 107 492 -11 341 -11 c 0xec
321 439 m 0xec
 273 439 236 418 203 388 c 1
 203 299 204 209 204 120 c 1
 231 107 260 100 291 100 c 0
 399 100 467 167 467 271 c 0
 467 364 404 439 321 439 c 0xec
EndSplineSet
EndChar

StartChar: q
Encoding: 113 113 73
Width: 646
Flags: MW
HStem: -300 21G<450 585 450 450> -7 94<313 335.5> 442 99<293 336 234 363> 513 20G<450 585 585 585>
VStem: 39 141<214.5 315 214.5 340.5> 450 135<-300 27 27 27 108 406 406 406 500 533 -300 533>
LayerCount: 2
Fore
SplineSet
308 541 m 0xec
 364 541 413 524 450 500 c 1
 450 533 l 1
 585 533 l 1xdc
 585 -300 l 1
 450 -300 l 1
 450 27 l 1
 408 5 360 -7 311 -7 c 0
 158 -7 39 99 39 264 c 0
 39 417 160 541 308 541 c 0xec
362 87 m 0
 396 87 423 94 450 108 c 1
 450 406 l 1
 420 429 382 442 344 442 c 0xec
 242 442 180 359 180 271 c 0
 180 158 264 87 362 87 c 0
EndSplineSet
EndChar

StartChar: r
Encoding: 114 114 74
Width: 436
Flags: MW
HStem: 0 21G<73 208 73 73> 423 120<337 371> 513 20G<73 208 208 208>
VStem: 73 135<0 360 0 480 480 533>
LayerCount: 2
Fore
SplineSet
366 423 m 0xd0
 300 423 252 394 208 360 c 1
 208 0 l 1
 73 0 l 1
 73 533 l 1
 208 533 l 1xb0
 208 480 l 1
 249 513 304 543 370 543 c 0
 384 543 397 541 411 539 c 1
 396 421 l 1
 386 422 376 423 366 423 c 0xd0
EndSplineSet
EndChar

StartChar: s
Encoding: 115 115 75
Width: 521
Flags: MW
HStem: -6 112<220.5 274.5 220.5 300> 439 101<260.5 293 199.5 303>
VStem: 59 137<367 410 367 431.5> 343 149<134 176.5>
LayerCount: 2
Fore
SplineSet
281 439 m 0
 240 439 196 430 196 390 c 0
 196 344 261 333 318 321 c 0
 404 303 492 260 492 163 c 0
 492 57 367 -6 233 -6 c 0
 157 -6 86 14 21 53 c 1
 71 155 l 1
 127 122 188 106 253 106 c 0
 296 106 343 113 343 155 c 0
 343 198 285 204 235 215 c 0
 147 233 59 281 59 387 c 0
 59 476 143 540 256 540 c 0
 330 540 389 521 447 491 c 1
 403 394 l 1
 368 423 325 439 281 439 c 0
EndSplineSet
EndChar

StartChar: t
Encoding: 116 116 76
Width: 459
Flags: MW
HStem: -6 115<301 302.5> 416 119<274 431 274 431>
VStem: 140 134<195.5 226 226 416 535 615 615 615>
LayerCount: 2
Fore
SplineSet
28 416 m 1
 26 534 l 1
 140 534 l 1
 140 615 l 1
 274 697 l 1
 274 535 l 1
 431 535 l 1
 431 416 l 1
 274 416 l 1
 274 226 l 2
 274 165 275 109 327 109 c 0
 348 109 368 114 386 123 c 1
 425 25 l 1
 378 5 328 -6 277 -6 c 0
 191 -6 140 63 140 153 c 2
 140 416 l 1
 28 416 l 1
EndSplineSet
EndChar

StartChar: u
Encoding: 117 117 77
Width: 609
Flags: MW
HStem: -10 100<283.5 294.5> 0 21G<416 551 416 416> 513 20G<72 206 206 206 416 551 551 551>
VStem: 72 134<175.5 209 209 533> 416 135<0 37 37 37 132 533 0 533>
LayerCount: 2
Fore
SplineSet
206 209 m 2xb8
 206 142 246 90 321 90 c 0xb8
 359 90 393 106 416 132 c 1
 416 533 l 1
 551 533 l 1
 551 0 l 1
 416 0 l 1x78
 416 37 l 1
 374 7 322 -10 267 -10 c 0
 149 -10 72 60 72 165 c 2
 72 533 l 1
 206 533 l 1
 206 209 l 2xb8
EndSplineSet
EndChar

StartChar: v
Encoding: 118 118 78
Width: 585
Flags: MW
HStem: 0 21G<236 359 236 236> 513 20G<21 166 166 166 424 569 569 569>
LayerCount: 2
Fore
SplineSet
21 533 m 1
 166 533 l 1
 295 167 l 1
 424 533 l 1
 569 533 l 1
 359 0 l 1
 236 0 l 1
 21 533 l 1
EndSplineSet
EndChar

StartChar: w
Encoding: 119 119 79
Width: 938
Flags: MW
HStem: 0 21G<240 364 240 240 570 694 570 570> 513 20G<44 179 179 179 409 533 533 533 776 923 923 923>
LayerCount: 2
Fore
SplineSet
44 533 m 1
 179 533 l 1
 297 181 l 1
 409 533 l 1
 533 533 l 1
 636 171 l 1
 776 533 l 1
 923 533 l 1
 694 0 l 1
 570 0 l 1
 469 333 l 1
 364 0 l 1
 240 0 l 1
 44 533 l 1
EndSplineSet
EndChar

StartChar: x
Encoding: 120 120 80
Width: 591
Flags: MW
HStem: 0 21G<27 183 27 27 404 561 404 404> 513 20G<65 222 222 222 409 565 565 565>
LayerCount: 2
Fore
SplineSet
65 533 m 1
 222 533 l 1
 306 400 l 1
 409 533 l 1
 565 533 l 1
 384 278 l 1
 561 0 l 1
 404 0 l 1
 305 156 l 1
 183 0 l 1
 27 0 l 1
 228 277 l 1
 65 533 l 1
EndSplineSet
EndChar

StartChar: y
Encoding: 121 121 81
Width: 595
Flags: MW
HStem: -300 21G<47 192 47 47> 513 20G<29 174 174 174 438 572 572 572>
LayerCount: 2
Fore
SplineSet
29 533 m 1
 174 533 l 1
 297 233 l 1
 438 533 l 1
 572 533 l 1
 192 -300 l 1
 47 -300 l 1
 225 79 l 1
 29 533 l 1
EndSplineSet
EndChar

StartChar: z
Encoding: 122 122 82
Width: 521
Flags: MW
HStem: 0 118<199 490 40 40> 412 118<84 84 84 321>
LayerCount: 2
Fore
SplineSet
84 412 m 1
 84 530 l 1
 480 531 l 1
 480 412 l 1
 199 118 l 1
 490 118 l 1
 490 0 l 1
 40 0 l 1
 40 118 l 1
 321 412 l 1
 84 412 l 1
EndSplineSet
EndChar

StartChar: bar
Encoding: 124 124 83
Width: 113
Flags: MW
HStem: -21 20G<-6 129 129 129> 1 21G<-6 -6 -6 129> 512 20G<-6 129 129 129> 535 21G<-6 129 -6 -6>
VStem: -6 135<-377 -1 -377 -1 1 532 535 847>
LayerCount: 2
Fore
SplineSet
-6 847 m 1
 129 847 l 1
 129 535 l 1
 -6 535 l 1
 -6 847 l 1
-6 1 m 1
 -6 532 l 1
 129 532 l 1
 129 1 l 1
 -6 1 l 1
-6 -377 m 1
 -6 -1 l 1
 129 -1 l 1
 129 -377 l 1
 -6 -377 l 1
EndSplineSet
EndChar
